<svg xmlns="http://www.w3.org/2000/svg" width="512" height="512" viewBox="0 0 512 512" role="img" aria-label="Calculadora impresión 3D">
  <defs>
    <radialGradient id="g" cx="20%" cy="20%" r="90%">
      <stop offset="0%" stop-color="#7c5cff" stop-opacity="0.95"/>
      <stop offset="55%" stop-color="#0b1020" stop-opacity="1"/>
      <stop offset="100%" stop-color="#0b1020" stop-opacity="1"/>
    </radialGradient>
    <linearGradient id="a" x1="0" y1="0" x2="1" y2="1">
      <stop offset="0" stop-color="#7c5cff"/>
      <stop offset="1" stop-color="#23c55e"/>
    </linearGradient>
  </defs>
  <rect x="0" y="0" width="512" height="512" rx="120" fill="url(#g)"/>
  <g fill="none" stroke="rgba(255,255,255,0.92)" stroke-width="26" stroke-linecap="round" stroke-linejoin="round">
    <path d="M170 170h172a32 32 0 0 1 32 32v140a32 32 0 0 1-32 32H170a32 32 0 0 1-32-32V202a32 32 0 0 1 32-32z"/>
    <path d="M190 230h132"/>
    <path d="M190 280h40"/>
    <path d="M252 280h40"/>
    <path d="M314 280h40"/>
    <path d="M190 330h40"/>
    <path d="M252 330h40"/>
    <path d="M314 330h40"/>
  </g>
  <circle cx="392" cy="140" r="44" fill="url(#a)" opacity="0.95"/>
</svg>
